# xmcd CD database file
#
# Track frame offsets:
#	150
#	19701
#	38200
#	61850
#	82120
#	105192
#	123347
#	144866
#	165616
#	189271
#	210709
#
# Disc length: 3076 seconds
#
# Revision: 4
# Processed by: cddbd v1.5.2PL0 Copyright (c) Steve Scherf et al.
# Submitted via: CDex 1.70beta3
#
DISCID=850c020b
DTITLE=EXILE - EXILE COVER
DYEAR=2011
DGENRE=JPop
TTITLE0=言葉にできない
TTITLE1=こんなにもながい君の不在
TTITLE2=GEORGY PORGY
TTITLE3=Just The Two Of Us
TTITLE4=遠く遠く
TTITLE5=以心伝心
TTITLE6=LA・LA・LA LOVE SONG
TTITLE7=Giver
TTITLE8=WON'T BE LONG
TTITLE9=Choo Choo TRAIN
TTITLE10=EXILE feat.VERBAL(m-flo)／銀河鉄道999
EXTD=YEAR: 2011
EXTT0=
EXTT1=
EXTT2=
EXTT3=
EXTT4=
EXTT5=
EXTT6=
EXTT7=
EXTT8=
EXTT9=
EXTT10=
PLAYORDER=
